<?xml version="1.0" encoding="UTF-8"?>
<!DOCTYPE svg PUBLIC "-//W3C//DTD SVG 1.1//EN" "http://www.w3.org/Graphics/SVG/1.1/DTD/svg11.dtd">
<svg version="1.1" id="Layer_1" xmlns="http://www.w3.org/2000/svg" xmlns:xlink="http://www.w3.org/1999/xlink" x="0px" y="0px" width="24px" height="24px" viewBox="0 0 24 24" enable-background="new 0 0 24 24" xml:space="preserve">
  <g id="icon">
    <circle cx="12" cy="12" r="11" fill="#E84934"/>
    <path d="M10.8941,13.3321l-3.698,1.2967c-0.0276,0.0097,-0.0559,0.0143,-0.0836,0.0143c-0.1035,0,-0.2004,-0.0641,-0.2377,-0.1668c-0.434,-1.1982,-0.4338,-2.4039,0.0004,-3.5832c0.0232,-0.0629,0.0704,-0.114,0.1313,-0.1421c0.0608,-0.0282,0.1304,-0.031,0.1933,-0.0077l3.6499,1.3446c0.0417,0.0153,0.0785,0.0414,0.1069,0.0754c0.3213,0.3862,0.3368,0.7545,0.0459,1.0945C10.9736,13.2917,10.9362,13.3173,10.8941,13.3321zM11.187,11.3828c0.0142,0.0195,0.0311,0.0369,0.0502,0.0515c0.1176,0.0904,0.2491,0.1382,0.3806,0.1382c0.2571,0,0.4799,-0.1774,0.5592,-0.463c0.0061,-0.022,0.023,-0.0448,0.023,-0.0676V5.0386c0,-0.1222,-0.1012,-0.2269,-0.2214,-0.2487c-0.346,-0.0628,-0.6913,-0.0946,-1.0125,-0.0946c-1.5686,0,-2.6115,0.7501,-3.3419,1.4036c-0.0967,0.0865,-0.1139,0.2323,-0.0375,0.3372L11.187,11.3828zM12.1341,14.2728c-0.0573,-0.2008,-0.2133,-0.4402,-0.6315,-0.4402c-0.0878,0,-0.1767,0.01,-0.2443,0.0188c-0.0609,0.0079,-0.1168,0.0377,-0.1573,0.0838l-2.4493,2.7855c-0.0773,0.0879,-0.0841,0.2174,-0.0164,0.313c0.667,0.9418,1.6618,1.4193,2.9566,1.4193c0.1412,0,0.2886,-0.0056,0.4381,-0.0167c0.1351,-0.01,0.2383,-0.1246,0.234,-0.26l-0.1202,-3.8421C12.1431,14.3134,12.1398,14.2927,12.1341,14.2728zM13.1699,12.4653c0.0288,0.011,0.0592,0.0165,0.0899,0.0165c0.0135,0,0.027,-0.0011,0.0404,-0.0033l4.0218,-0.6512c0.0667,-0.0108,0.1262,-0.0477,0.1654,-0.1027c0.0392,-0.0549,0.0548,-0.1233,0.0433,-0.1898c-0.2338,-1.3557,-1.039,-2.5807,-2.1537,-3.277c-0.1116,-0.0698,-0.2581,-0.042,-0.3366,0.0635l-2.3675,3.1804c-0.0291,0.0391,-0.0463,0.0858,-0.0496,0.1345C12.5972,12.0386,12.781,12.3175,13.1699,12.4653zM17.3653,14.5319l-3.914,-1.1526c-0.0412,-0.012,-0.0848,-0.0134,-0.1268,-0.0041c-0.4125,0.0926,-0.6103,0.4002,-0.5291,0.8227c0.0055,0.0284,0.0158,0.0558,0.0306,0.0808l2.0342,3.4436c0.0468,0.0793,0.1308,0.1242,0.2177,0.1242c0.0354,0,0.0713,-0.0074,0.1054,-0.023c1.0844,-0.4977,1.9643,-1.6116,2.3537,-2.9798C17.575,14.7102,17.4984,14.5711,17.3653,14.5319z" fill="#FFFFFF"/>
    <path d="M4.2218,19.7782C6.2124,21.7688,8.9624,23,12,23c6.0751,0,11,-4.9249,11,-11c0,-3.0376,-1.2312,-5.7876,-3.2218,-7.7782L4.2218,19.7782z" fill="#231F20" opacity="0.1"/>
  </g>
</svg>
